<svg xmlns="http://www.w3.org/2000/svg" viewBox="0 0 96 96" role="img" aria-label="Recurdream">
  <defs>
    <radialGradient id="bg" cx="32%" cy="20%" r="85%">
      <stop offset="0" stop-color="#2dd4ff"/>
      <stop offset=".22" stop-color="#4338ca"/>
      <stop offset=".58" stop-color="#160a3a"/>
      <stop offset="1" stop-color="#070816"/>
    </radialGradient>
    <linearGradient id="loop" x1="15" y1="22" x2="82" y2="75" gradientUnits="userSpaceOnUse">
      <stop offset="0" stop-color="#67e8f9"/>
      <stop offset=".28" stop-color="#8b5cf6"/>
      <stop offset=".58" stop-color="#ec4899"/>
      <stop offset=".82" stop-color="#f0abfc"/>
      <stop offset="1" stop-color="#22d3ee"/>
    </linearGradient>
    <linearGradient id="core" x1="37" y1="35" x2="61" y2="62" gradientUnits="userSpaceOnUse">
      <stop offset="0" stop-color="#ffffff"/>
      <stop offset=".25" stop-color="#a5f3fc"/>
      <stop offset=".62" stop-color="#c084fc"/>
      <stop offset="1" stop-color="#f472b6"/>
    </linearGradient>
    <filter id="glow" x="-60%" y="-60%" width="220%" height="220%">
      <feGaussianBlur stdDeviation="3.8" result="blur"/>
      <feColorMatrix in="blur" type="matrix" values="0 0 0 0 0.54 0 0 0 0 0.24 0 0 0 0 1 0 0 0 .88 0"/>
      <feMerge>
        <feMergeNode/>
        <feMergeNode in="SourceGraphic"/>
      </feMerge>
    </filter>
    <filter id="soft" x="-40%" y="-40%" width="180%" height="180%">
      <feDropShadow dx="0" dy="10" stdDeviation="8" flood-color="#7c3aed" flood-opacity=".45"/>
      <feDropShadow dx="0" dy="0" stdDeviation="5" flood-color="#22d3ee" flood-opacity=".45"/>
    </filter>
  </defs>
  <rect width="96" height="96" rx="23" fill="url(#bg)"/>
  <path d="M11 69c17 8 36 11 56 7 9-2 16-5 22-10v19H11V69Z" fill="#0f172a" opacity=".55"/>
  <circle cx="73" cy="19" r="18" fill="#22d3ee" opacity=".12"/>
  <circle cx="26" cy="74" r="20" fill="#ec4899" opacity=".13"/>
  <path fill="none" stroke="#fff" stroke-width="1.4" stroke-linecap="round" opacity=".55" d="M27 29c15-9 32-8 45 1"/>
  <path fill="none" stroke="url(#loop)" stroke-width="9.2" stroke-linecap="round" stroke-linejoin="round" filter="url(#soft)" d="M10 58c14-23 42-29 61-13 14 12 7 30-11 33-17 3-32-8-29-23 2-12 17-18 29-10 10 7 7 21-5 23-8 1-16-4-16-11"/>
  <path fill="none" stroke="url(#loop)" stroke-width="7.2" stroke-linecap="round" stroke-linejoin="round" filter="url(#glow)" d="M12 57c16-18 38-22 54-9 11 9 6 23-9 25-13 2-24-6-22-17 2-8 13-12 21-7 7 5 5 14-4 15"/>
  <path fill="none" stroke="#fff" stroke-width="2.15" stroke-linecap="round" stroke-linejoin="round" opacity=".7" d="M18 52c15-13 35-15 48-4 8 7 5 17-6 19-8 1-15-3-16-9"/>
  <path fill="none" stroke="#d8f8ff" stroke-width="1.35" stroke-linecap="round" opacity=".6" d="M31 43c10-6 23-5 31 2"/>
  <g filter="url(#glow)">
    <circle cx="48" cy="55" r="10.5" fill="url(#core)" opacity=".16"/>
    <path fill="#fff" d="m48.5 43 2.5 6 6.2 2.5L51 54l-2.5 6-2.5-6-6.2-2.5L46 49l2.5-6Z"/>
    <path fill="#fff" opacity=".9" d="m60.7 40.8 1.1 2.6 2.7 1.1-2.7 1.1-1.1 2.6-1.1-2.6-2.7-1.1 2.7-1.1 1.1-2.6ZM36.2 58.1l.9 2.1 2.2.9-2.2.9-.9 2.1-.9-2.1-2.2-.9 2.2-.9.9-2.1Z"/>
  </g>
  <path fill="#fff" d="m67.7 20 2.1 5.1 5.2 2.1-5.2 2.1-2.1 5.1-2.1-5.1-5.2-2.1 5.2-2.1 2.1-5.1ZM25.5 15.5l1.3 3.2 3.2 1.3-3.2 1.3-1.3 3.2-1.3-3.2L21 20l3.2-1.3 1.3-3.2ZM74.8 62.8l1.2 2.9 2.9 1.2-2.9 1.2-1.2 2.9-1.2-2.9-2.9-1.2 2.9-1.2 1.2-2.9Z" opacity=".9"/>
  <path fill="none" stroke="#fff" stroke-width="1.2" stroke-linecap="round" opacity=".38" d="M16 27h7M19.5 23.5v7M79 77h5M81.5 74.5v5"/>
</svg>
