<svg width="1280" height="760" viewBox="0 0 1280 760" fill="none" xmlns="http://www.w3.org/2000/svg">
  <rect width="1280" height="760" rx="28" fill="#0B1020"/>
  <rect x="38" y="38" width="1204" height="684" rx="24" fill="#111827" stroke="#2B3658" stroke-width="2"/>
  <rect x="74" y="78" width="260" height="604" rx="18" fill="#0F172A"/>
  <circle cx="112" cy="118" r="12" fill="#8B5CF6"/>
  <circle cx="148" cy="118" r="12" fill="#EC4899"/>
  <circle cx="184" cy="118" r="12" fill="#22D3EE"/>
  <rect x="102" y="180" width="170" height="20" rx="10" fill="#64748B"/>
  <rect x="102" y="234" width="146" height="18" rx="9" fill="#475569"/>
  <rect x="102" y="282" width="184" height="18" rx="9" fill="#475569"/>
  <rect x="102" y="330" width="128" height="18" rx="9" fill="#475569"/>
  <rect x="98" y="386" width="196" height="52" rx="14" fill="#312E81" stroke="#8B5CF6"/>
  <text x="122" y="420" fill="#EDE9FE" font-family="Arial, sans-serif" font-size="22" font-weight="700">OpenAI Compatible</text>
  <text x="382" y="128" fill="#F8FAFC" font-family="Arial, sans-serif" font-size="38" font-weight="700">Tavo 模型服务设置</text>
  <text x="382" y="174" fill="#94A3B8" font-family="Arial, sans-serif" font-size="22">填写 Recurdream 的 API Key、Base URL 和模型名</text>
  <g filter="url(#glow)">
    <rect x="382" y="226" width="788" height="88" rx="16" fill="#0F172A" stroke="#374151" stroke-width="2"/>
    <text x="414" y="262" fill="#A5B4FC" font-family="Arial, sans-serif" font-size="20" font-weight="700">API Key</text>
    <rect x="414" y="278" width="516" height="16" rx="8" fill="#334155"/>
    <rect x="948" y="268" width="176" height="34" rx="17" fill="#7C3AED"/>
    <text x="984" y="292" fill="#FFFFFF" font-family="Arial, sans-serif" font-size="17" font-weight="700">粘贴密钥</text>
  </g>
  <g filter="url(#glow)">
    <rect x="382" y="344" width="788" height="88" rx="16" fill="#0F172A" stroke="#374151" stroke-width="2"/>
    <text x="414" y="380" fill="#67E8F9" font-family="Arial, sans-serif" font-size="20" font-weight="700">Base URL</text>
    <text x="414" y="410" fill="#E2E8F0" font-family="Consolas, monospace" font-size="22">https://api.recurdream.com/v1</text>
  </g>
  <g filter="url(#glow)">
    <rect x="382" y="462" width="788" height="88" rx="16" fill="#0F172A" stroke="#374151" stroke-width="2"/>
    <text x="414" y="498" fill="#F9A8D4" font-family="Arial, sans-serif" font-size="20" font-weight="700">Model</text>
    <text x="414" y="528" fill="#E2E8F0" font-family="Consolas, monospace" font-size="22">gpt-4o-mini</text>
  </g>
  <rect x="382" y="592" width="210" height="58" rx="18" fill="url(#button)"/>
  <text x="442" y="628" fill="#FFFFFF" font-family="Arial, sans-serif" font-size="22" font-weight="700">保存设置</text>
  <path d="M1060 610C1110 575 1134 534 1128 487C1122 439 1088 414 1027 412C1080 386 1104 348 1099 298C1094 249 1062 218 1004 204" stroke="url(#loop)" stroke-width="8" stroke-linecap="round"/>
  <path d="M1010 205L1045 194L1033 229" stroke="#EC4899" stroke-width="7" stroke-linecap="round" stroke-linejoin="round"/>
  <defs>
    <filter id="glow" x="342" y="196" width="868" height="394" filterUnits="userSpaceOnUse" color-interpolation-filters="sRGB">
      <feDropShadow dx="0" dy="18" stdDeviation="20" flood-color="#000000" flood-opacity="0.28"/>
      <feDropShadow dx="0" dy="0" stdDeviation="10" flood-color="#8B5CF6" flood-opacity="0.18"/>
    </filter>
    <linearGradient id="button" x1="382" y1="592" x2="592" y2="650" gradientUnits="userSpaceOnUse">
      <stop stop-color="#7C3AED"/>
      <stop offset="0.55" stop-color="#EC4899"/>
      <stop offset="1" stop-color="#22D3EE"/>
    </linearGradient>
    <linearGradient id="loop" x1="1004" y1="204" x2="1131" y2="609" gradientUnits="userSpaceOnUse">
      <stop stop-color="#22D3EE"/>
      <stop offset="0.45" stop-color="#8B5CF6"/>
      <stop offset="1" stop-color="#EC4899"/>
    </linearGradient>
  </defs>
</svg>
